<svg width="217" height="50" viewBox="0 0 217 50" fill="none" xmlns="http://www.w3.org/2000/svg">
<path fill-rule="evenodd" clip-rule="evenodd" d="M54.7101 21.31L44.5201 5.42998C43.9801 4.30998 42.7401 3.59997 41.3801 3.82997C40.1501 4.03997 39.1701 5.05998 39.0101 6.29998C38.9301 6.88998 39.0301 7.44998 39.2501 7.92998V7.94999L39.2901 8.01998C39.3801 8.18998 39.4801 8.35998 39.6001 8.50998L40.7501 10.32L46.8801 19.86H46.8601C47.5001 20.76 47.5701 21.93 47.0101 22.87C45.2701 25.78 41.4501 32 40.5901 33.02C39.9301 33.62 39.0601 33.93 38.1701 33.86L33.3901 33.52C32.3401 33.4 31.7801 32.22 32.3701 31.34L34.3501 28.29C34.4501 28.16 34.5401 28.02 34.6201 27.87C34.8801 27.36 34.9701 26.76 34.8301 26.13C34.6201 25.21 33.8701 24.46 32.9501 24.25C31.7001 23.97 30.5601 24.61 30.0801 25.62L17.1001 45.48C16.0901 47.02 17.1101 49.12 18.9501 49.2C18.9901 49.2 19.0301 49.2 19.0801 49.2L37.9101 49.18C39.5101 49.18 40.9901 48.35 41.8201 46.98L54.7701 25.81C55.6201 24.42 55.6001 22.68 54.7201 21.31" fill="#0066CC"/>
<path fill-rule="evenodd" clip-rule="evenodd" d="M0.660087 27.8L10.7701 43.72C11.3101 44.84 12.5401 45.56 13.9101 45.33C15.1401 45.13 16.1201 44.1 16.2901 42.87C16.3701 42.28 16.2801 41.72 16.0501 41.23V41.21L16.0101 41.14C15.9201 40.97 15.8201 40.8 15.7001 40.65L14.5601 38.84L8.47009 29.28H8.49009C7.86009 28.38 7.79009 27.2 8.35009 26.27C10.1001 23.36 13.9501 17.16 14.8101 16.15C15.4701 15.55 16.3501 15.25 17.2301 15.32L22.0101 15.68C23.0601 15.8 23.6101 16.99 23.0201 17.87L21.0301 20.91C20.9301 21.04 20.8301 21.18 20.7601 21.33C20.5001 21.83 20.4001 22.44 20.5401 23.07C20.7501 23.99 21.4901 24.74 22.4101 24.96C23.6501 25.24 24.8001 24.61 25.2901 23.6L38.3601 3.8C39.3701 2.27 38.3601 0.16 36.5301 0.0699997C36.4901 0.0699997 36.4501 0.0699997 36.4001 0.0699997L17.5701 0C15.9701 0 14.4901 0.82 13.6501 2.18L0.630087 23.3C-0.219913 24.68 -0.209913 26.43 0.660087 27.8Z" fill="#0066CC"/>
<path d="M65.8201 9.56006H71.7001V26.17L73.6701 25.5101C74.4901 25.2201 74.9001 24.4401 75.1901 23.2901L76.4601 18.1501H82.1701L80.4801 24.64C79.9001 26.9 79.2901 28.3 77.8501 29.16L83.2801 39.64H76.7901L72.7601 31.1301L71.6901 31.5V39.64H65.8101V9.55005L65.8201 9.56006Z" fill="black"/>
<path d="M85.1401 18.15H90.9801V30.93C90.9801 33.77 92.1301 35.2 93.9401 35.2C95.7501 35.2 96.9001 33.76 96.9001 30.93V18.15H102.78V31.14C102.78 37.06 98.7501 40.18 93.9401 40.18C89.1301 40.18 85.1401 37.06 85.1401 31.14V18.15Z" fill="black"/>
<path d="M106.18 9.80002L112.06 9.02002V18.6C112.92 18.11 114.36 17.61 115.72 17.61C120.08 17.61 124.23 20.57 124.23 26.65V31.17C124.23 36.84 120.08 40.17 115.23 40.17C110.38 40.17 106.19 36.84 106.19 31.17V9.80002H106.18ZM115.22 35.2C116.99 35.2 118.34 33.8 118.34 30.97V26.86C118.34 23.74 116.94 22.59 115.18 22.59C114.11 22.59 113.08 22.92 112.06 23.33V30.98C112.06 33.82 113.42 35.21 115.23 35.21L115.22 35.2Z" fill="black"/>
<path d="M127.15 26.7C127.15 20.78 131.05 17.62 135.9 17.62C140.75 17.62 144.7 21.03 144.7 25.92V30.61H132.99V30.9C132.99 33.82 134.26 35.22 136.77 35.22C138.83 35.22 140.76 34.81 142.65 34.19L143.8 38.92C141.46 39.78 139.65 40.19 136.77 40.19C131.02 40.19 127.15 36.94 127.15 30.9V26.71V26.7ZM138.82 26.49V25.91C138.82 24.06 137.75 22.58 135.9 22.58C134.17 22.58 132.98 24.02 132.98 25.91V26.49H138.82Z" fill="black"/>
<path d="M147.9 26.45C147.9 20.53 151.72 17.61 156.29 17.61C158.63 17.61 160.48 18.64 161.72 20.36C162.99 18.59 164.84 17.61 167.19 17.61C171.79 17.61 175.58 20.53 175.58 26.45V39.64H169.7V26.86C169.7 24.02 168.92 22.59 167.19 22.59C165.46 22.59 164.68 24.32 164.68 27.56V39.64H158.8V27.56C158.8 24.31 158.02 22.59 156.29 22.59C154.56 22.59 153.78 24.03 153.78 26.86V39.64H147.9V26.45Z" fill="black"/>
<path d="M186.95 26.12H189.62V25.63C189.62 23.66 188.63 22.59 186.95 22.59C184.94 22.59 182.96 23.04 180.99 23.66L179.72 19.02C182.1 18.28 184.53 17.62 186.95 17.62C192.05 17.62 195.5 20.87 195.5 25.64V32.79C195.5 37.06 191.55 40.19 187.03 40.19C182.22 40.19 178.56 37.07 178.56 32.79C178.56 28.27 182.01 26.13 186.94 26.13L186.95 26.12ZM187.03 35.2C188.72 35.2 189.62 33.88 189.62 32.77V30.22H186.91C185.02 30.22 184.53 31.49 184.53 32.73C184.53 33.84 185.19 35.2 187.04 35.2H187.03Z" fill="black"/>
<path d="M198.91 26.65C198.91 20.73 202.9 17.61 207.75 17.61C212.6 17.61 216.55 20.73 216.55 26.65V39.64H210.67V26.86C210.67 24.02 209.56 22.59 207.75 22.59C205.94 22.59 204.75 24.03 204.75 26.86V39.64H198.91V26.65Z" fill="black"/>
</svg>
