<svg width="151" height="92" viewBox="0 0 151 92" fill="none" xmlns="http://www.w3.org/2000/svg">
<path fill-rule="evenodd" clip-rule="evenodd" d="M106.25 24.34L94.61 6.19C93.96 4.85 92.49 4.1 91.02 4.36C89.62 4.6 88.5 5.77 88.31 7.18C88.22 7.82 88.31 8.46 88.59 9.05V9.07L88.64 9.15C88.74 9.35 88.86 9.54 89 9.71L90.32 11.78L97.33 22.68H97.3C98.03 23.71 98.11 25.05 97.47 26.12C95.48 29.45 91.12 36.56 90.13 37.72C89.38 38.41 88.38 38.76 87.36 38.68L81.89 38.29C81.01 38.19 80.37 37.4 80.46 36.51C80.49 36.25 80.58 36.01 80.72 35.79L82.98 32.3C83.1 32.15 83.2 31.99 83.29 31.82V31.81C83.6 31.2 83.69 30.49 83.53 29.82C83.28 28.75 82.45 27.92 81.38 27.67C80.05 27.36 78.69 28.01 78.1 29.24L63.27 51.93C62.12 53.69 63.28 56.08 65.38 56.18C65.43 56.18 65.48 56.18 65.52 56.18L87.04 56.16C88.87 56.16 90.56 55.21 91.51 53.65L106.31 29.46C107.28 27.88 107.26 25.88 106.25 24.32M44.49 31.74L56.05 49.94C56.7 51.29 58.16 52.04 59.63 51.79C61.03 51.56 62.16 50.39 62.35 48.98C62.44 48.34 62.35 47.69 62.08 47.11V47.09L62.04 47.01C61.94 46.81 61.82 46.62 61.69 46.45L60.38 44.38L53.42 33.45H53.45C52.73 32.42 52.65 31.08 53.29 30.01C55.3 26.69 59.69 19.6 60.68 18.44C61.43 17.76 62.44 17.41 63.45 17.49L68.92 17.91C69.8 18.01 70.44 18.81 70.34 19.69C70.31 19.95 70.22 20.19 70.08 20.41L67.81 23.89C67.69 24.04 67.59 24.2 67.5 24.37C67.18 24.98 67.1 25.69 67.25 26.36C67.5 27.43 68.33 28.26 69.39 28.52C70.72 28.84 72.08 28.19 72.68 26.97L87.61 4.34C88.77 2.59 87.61 0.19 85.52 0.08C85.47 0.08 85.42 0.08 85.38 0.08L63.84 0C62.01 0 60.32 0.94 59.36 2.49L44.46 26.61C43.48 28.19 43.5 30.19 44.5 31.75" fill="#0066CC"/>
<path d="M0.00999832 60.73H5.89V77.34L7.86 76.68C8.68 76.39 9.09 75.61 9.38 74.46L10.65 69.32H16.36L14.67 75.81C14.09 78.07 13.48 79.47 12.04 80.33L17.47 90.81H10.98L6.95 82.3L5.88 82.67V90.81H0V60.72L0.00999832 60.73Z" fill="black"/>
<path d="M19.3301 69.3199H25.1701V82.0999C25.1701 84.9399 26.3201 86.3699 28.1301 86.3699C29.9401 86.3699 31.0901 84.9299 31.0901 82.0999V69.3199H36.9701V82.3099C36.9701 88.2299 32.9401 91.3499 28.1301 91.3499C23.3201 91.3499 19.3301 88.2299 19.3301 82.3099V69.3199Z" fill="black"/>
<path d="M40.3701 60.9799L46.2501 60.2V69.7799C47.1101 69.2899 48.5501 68.79 49.9101 68.79C54.2701 68.79 58.4201 71.75 58.4201 77.83V82.3499C58.4201 88.0199 54.2701 91.3499 49.4201 91.3499C44.5701 91.3499 40.3801 88.0199 40.3801 82.3499V60.9799H40.3701ZM49.4101 86.3799C51.1801 86.3799 52.5301 84.98 52.5301 82.15V78.04C52.5301 74.92 51.1301 73.7699 49.3701 73.7699C48.3001 73.7699 47.2701 74.1 46.2501 74.51V82.16C46.2501 85 47.6101 86.3899 49.4201 86.3899L49.4101 86.3799Z" fill="black"/>
<path d="M61.3401 77.8699C61.3401 71.9499 65.2401 68.7899 70.0901 68.7899C74.9401 68.7899 78.8901 72.1999 78.8901 77.0899V81.7799H67.1801V82.0699C67.1801 84.9899 68.4501 86.3899 70.9601 86.3899C73.0201 86.3899 74.9501 85.9799 76.8401 85.3599L77.9901 90.0899C75.6501 90.9499 73.8401 91.3599 70.9601 91.3599C65.2101 91.3599 61.3401 88.1099 61.3401 82.0699V77.8799V77.8699ZM73.0101 77.6599V77.0799C73.0101 75.2299 71.9401 73.7499 70.0901 73.7499C68.3601 73.7499 67.1701 75.1899 67.1701 77.0799V77.6599H73.0101Z" fill="black"/>
<path d="M82.0901 77.6199C82.0901 71.6999 85.9101 68.7799 90.4801 68.7799C92.8201 68.7799 94.6701 69.8099 95.9101 71.5299C97.1801 69.7599 99.0301 68.7799 101.38 68.7799C105.98 68.7799 109.77 71.6999 109.77 77.6199V90.8099H103.89V78.0299C103.89 75.1899 103.11 73.7599 101.38 73.7599C99.6501 73.7599 98.8701 75.4899 98.8701 78.7299V90.8099H92.9901V78.7299C92.9901 75.4799 92.2101 73.7599 90.4801 73.7599C88.7501 73.7599 87.9701 75.1999 87.9701 78.0299V90.8099H82.0901V77.6199Z" fill="black"/>
<path d="M121.14 77.2999H123.81V76.8099C123.81 74.8399 122.82 73.7699 121.14 73.7699C119.13 73.7699 117.15 74.2199 115.18 74.8399L113.91 70.1999C116.29 69.4599 118.72 68.7999 121.14 68.7999C126.24 68.7999 129.69 72.0499 129.69 76.8199V83.9699C129.69 88.2399 125.74 91.3699 121.22 91.3699C116.41 91.3699 112.75 88.2499 112.75 83.9699C112.75 79.4499 116.2 77.3099 121.13 77.3099L121.14 77.2999ZM121.22 86.3799C122.91 86.3799 123.81 85.0599 123.81 83.9499V81.3999H121.1C119.21 81.3999 118.72 82.6699 118.72 83.9099C118.72 85.0199 119.38 86.3799 121.23 86.3799H121.22Z" fill="black"/>
<path d="M133.1 77.8299C133.1 71.9099 137.09 68.7899 141.94 68.7899C146.79 68.7899 150.74 71.9099 150.74 77.8299V90.8199H144.86V78.0399C144.86 75.1999 143.75 73.7699 141.94 73.7699C140.13 73.7699 138.94 75.2099 138.94 78.0399V90.8199H133.1V77.8299Z" fill="black"/>
</svg>
